# xmcd CD database file
#
# Track frame offsets:
#	150
#	29470
#	58918
#	77873
#	103236
#	123145
#	141274
#	157620
#
# Disc length: 2402 seconds
#
# Revision: 1
# Processed by: cddbd v1.5.2PL0 Copyright (c) Steve Scherf et al.
# Submitted via: CDex 1.51
#
DISCID=65096008
DTITLE=Carlos Barretto - Solo Pictórico
DYEAR=2002
DGENRE=Jazz
TTITLE0=Deambulações do fala-só
TTITLE1=Round midnight
TTITLE2=Deambulações  2
TTITLE3=Variações
TTITLE4=Variações em mi
TTITLE5=Deambulações  3
TTITLE6=Deambulações  4
TTITLE7=Variações do azul
EXTD=YEAR: 2002
EXTT0=
EXTT1=
EXTT2=
EXTT3=
EXTT4=
EXTT5=
EXTT6=
EXTT7=
PLAYORDER=
